PathFileType  4	(X/Y/Z) C:\Users\MoBL3\Box\OA_GRF_OpenCap\GRF_Tracking_12_18_24\Subject3_walking1
DataRate	CameraRate	NumFrames	NumMarkers	Units	OrigDataRate	OrigDataStartFrame	OrigNumFrames
100.0		100.0		4		177		 mm	100.0	1	132
Frame#	Time	r_knee			r_shank_antsup			r_ankle			r_calc			r_5meta			r_toe			L_knee			L_shank_antsup			L_ankle			L_calc			L_5meta			L_toe			r_sh2			r_sh3			r_sh4			L_sh2			L_sh3			r_thigh1			r_thigh2			r_thigh3			r_thigh4			r_thigh5			L_thigh1			L_thigh2			L_thigh3			L_thigh4			r.ASIS			r.PSIS			L.ASIS			L.PSIS			C7			R_Shoulder			L_Shoulder			R_Sternum			L_Sternum			R_humerus			R_elbow_med			R_elbow_lat			R_forearm			R_wrist_radius			R_wrist_ulna			L_humerus			L_elbow_med			L_elbow_lat			L_forearm			L_wrist_radius			L_wrist_ulna			R_HJC			L_HJC			R_HJC_reg			L_HJC_reg			Neck			RShoulder			RElbow			RWrist			LShoulder			LElbow			LWrist			midHip			RHip			RKnee			RAnkle			LHip			LKnee			LAnkle			LBigToe			LSmallToe			LHeel			RBigToe			RSmallToe			RHeel			C7_study			r_shoulder_study			L_shoulder_study			r.ASIS_study			L.ASIS_study			r.PSIS_study			L.PSIS_study			r_knee_study			L_knee_study			r_mknee_study			L_mknee_study			r_ankle_study			L_ankle_study			r_mankle_study			L_mankle_study			r_calc_study			L_calc_study			r_toe_study			L_toe_study			r_5meta_study			L_5meta_study			r_thigh1_study			r_thigh2_study			r_thigh3_study			L_thigh1_study			L_thigh2_study			L_thigh3_study			r_sh1_study			r_sh2_study			r_sh3_study			L_sh1_study			L_sh2_study			L_sh3_study			RHJC_study			LHJC_study			r_lelbow_study			L_lelbow_study			r_melbow_study			L_melbow_study			r_lwrist_study			L_lwrist_study			r_mwrist_study			L_mwrist_study			Neck_offsetRemoved			RShoulder_offsetRemoved			RElbow_offsetRemoved			RWrist_offsetRemoved			LShoulder_offsetRemoved			LElbow_offsetRemoved			LWrist_offsetRemoved			midHip_offsetRemoved			RHip_offsetRemoved			RKnee_offsetRemoved			RAnkle_offsetRemoved			LHip_offsetRemoved			LKnee_offsetRemoved			LAnkle_offsetRemoved			LBigToe_offsetRemoved			LSmallToe_offsetRemoved			LHeel_offsetRemoved			RBigToe_offsetRemoved			RSmallToe_offsetRemoved			RHeel_offsetRemoved			C7_study_offsetRemoved			r_shoulder_study_offsetRemoved			L_shoulder_study_offsetRemoved			r.ASIS_study_offsetRemoved			L.ASIS_study_offsetRemoved			r.PSIS_study_offsetRemoved			L.PSIS_study_offsetRemoved			r_knee_study_offsetRemoved			L_knee_study_offsetRemoved			r_mknee_study_offsetRemoved			L_mknee_study_offsetRemoved			r_ankle_study_offsetRemoved			L_ankle_study_offsetRemoved			r_mankle_study_offsetRemoved			L_mankle_study_offsetRemoved			r_calc_study_offsetRemoved			L_calc_study_offsetRemoved			r_toe_study_offsetRemoved			L_toe_study_offsetRemoved			r_5meta_study_offsetRemoved			L_5meta_study_offsetRemoved			r_thigh1_study_offsetRemoved			r_thigh2_study_offsetRemoved			r_thigh3_study_offsetRemoved			L_thigh1_study_offsetRemoved			L_thigh2_study_offsetRemoved			L_thigh3_study_offsetRemoved			r_sh1_study_offsetRemoved			r_sh2_study_offsetRemoved			r_sh3_study_offsetRemoved			L_sh1_study_offsetRemoved			L_sh2_study_offsetRemoved			L_sh3_study_offsetRemoved			RHJC_study_offsetRemoved			LHJC_study_offsetRemoved			r_lelbow_study_offsetRemoved			L_lelbow_study_offsetRemoved			r_melbow_study_offsetRemoved			L_melbow_study_offsetRemoved			r_lwrist_study_offsetRemoved			L_lwrist_study_offsetRemoved			r_mwrist_study_offsetRemoved			L_mwrist_study_offsetRemoved			
		X1	Y1	Z1	X2	Y2	Z2	X3	Y3	Z3	X4	Y4	Z4	X5	Y5	Z5	X6	Y6	Z6	X7	Y7	Z7	X8	Y8	Z8	X9	Y9	Z9	X10	Y10	Z10	X11	Y11	Z11	X12	Y12	Z12	X13	Y13	Z13	X14	Y14	Z14	X15	Y15	Z15	X16	Y16	Z16	X17	Y17	Z17	X18	Y18	Z18	X19	Y19	Z19	X20	Y20	Z20	X21	Y21	Z21	X22	Y22	Z22	X23	Y23	Z23	X24	Y24	Z24	X25	Y25	Z25	X26	Y26	Z26	X27	Y27	Z27	X28	Y28	Z28	X29	Y29	Z29	X30	Y30	Z30	X31	Y31	Z31	X32	Y32	Z32	X33	Y33	Z33	X34	Y34	Z34	X35	Y35	Z35	X36	Y36	Z36	X37	Y37	Z37	X38	Y38	Z38	X39	Y39	Z39	X40	Y40	Z40	X41	Y41	Z41	X42	Y42	Z42	X43	Y43	Z43	X44	Y44	Z44	X45	Y45	Z45	X46	Y46	Z46	X47	Y47	Z47	X48	Y48	Z48	X49	Y49	Z49	X50	Y50	Z50	X51	Y51	Z51	X52	Y52	Z52	X53	Y53	Z53	X54	Y54	Z54	X55	Y55	Z55	X56	Y56	Z56	X57	Y57	Z57	X58	Y58	Z58	X59	Y59	Z59	X60	Y60	Z60	X61	Y61	Z61	X62	Y62	Z62	X63	Y63	Z63	X64	Y64	Z64	X65	Y65	Z65	X66	Y66	Z66	X67	Y67	Z67	X68	Y68	Z68	X69	Y69	Z69	X70	Y70	Z70	X71	Y71	Z71	X72	Y72	Z72	X73	Y73	Z73	X74	Y74	Z74	X75	Y75	Z75	X76	Y76	Z76	X77	Y77	Z77	X78	Y78	Z78	X79	Y79	Z79	X80	Y80	Z80	X81	Y81	Z81	X82	Y82	Z82	X83	Y83	Z83	X84	Y84	Z84	X85	Y85	Z85	X86	Y86	Z86	X87	Y87	Z87	X88	Y88	Z88	X89	Y89	Z89	X90	Y90	Z90	X91	Y91	Z91	X92	Y92	Z92	X93	Y93	Z93	X94	Y94	Z94	X95	Y95	Z95	X96	Y96	Z96	X97	Y97	Z97	X98	Y98	Z98	X99	Y99	Z99	X100	Y100	Z100	X101	Y101	Z101	X102	Y102	Z102	X103	Y103	Z103	X104	Y104	Z104	X105	Y105	Z105	X106	Y106	Z106	X107	Y107	Z107	X108	Y108	Z108	X109	Y109	Z109	X110	Y110	Z110	X111	Y111	Z111	X112	Y112	Z112	X113	Y113	Z113	X114	Y114	Z114	X115	Y115	Z115	X116	Y116	Z116	X117	Y117	Z117	X118	Y118	Z118	X119	Y119	Z119	X120	Y120	Z120	X121	Y121	Z121	X122	Y122	Z122	X123	Y123	Z123	X124	Y124	Z124	X125	Y125	Z125	X126	Y126	Z126	X127	Y127	Z127	X128	Y128	Z128	X129	Y129	Z129	X130	Y130	Z130	X131	Y131	Z131	X132	Y132	Z132	X133	Y133	Z133	X134	Y134	Z134	X135	Y135	Z135	X136	Y136	Z136	X137	Y137	Z137	X138	Y138	Z138	X139	Y139	Z139	X140	Y140	Z140	X141	Y141	Z141	X142	Y142	Z142	X143	Y143	Z143	X144	Y144	Z144	X145	Y145	Z145	X146	Y146	Z146	X147	Y147	Z147	X148	Y148	Z148	X149	Y149	Z149	X150	Y150	Z150	X151	Y151	Z151	X152	Y152	Z152	X153	Y153	Z153	X154	Y154	Z154	X155	Y155	Z155	X156	Y156	Z156	X157	Y157	Z157	X158	Y158	Z158	X159	Y159	Z159	X160	Y160	Z160	X161	Y161	Z161	X162	Y162	Z162	X163	Y163	Z163	X164	Y164	Z164	X165	Y165	Z165	X166	Y166	Z166	X167	Y167	Z167	X168	Y168	Z168	X169	Y169	Z169	X170	Y170	Z170	X171	Y171	Z171	X172	Y172	Z172	X173	Y173	Z173	X174	Y174	Z174	X175	Y175	Z175	X176	Y176	Z176	X177	Y177	Z177	

1	0.00000	-32.949	439.019	-133.344	48.662	357.600	-152.699	102.794	81.214	-193.696	82.667	29.673	-250.876	228.959	84.565	-161.693	250.602	127.348	-196.747	-315.628	442.859	-424.222	-307.842	333.432	-375.048	-478.734	80.318	-364.066	-532.368	52.783	-314.009	-369.952	17.884	-371.608	-328.844	32.957	-319.179	85.141	252.823	-173.736	-7.992	327.530	-110.988	13.525	220.976	-143.181	-354.002	362.941	-443.155	-402.758	252.107	-443.544	-76.495	745.564	-127.954	-28.528	646.820	-128.842	-61.797	603.276	-85.532	-173.615	698.411	-83.036	-118.159	594.624	-85.451	-161.090	709.023	-449.621	-188.085	575.231	-436.632	-266.274	730.820	-481.644	-295.518	595.377	-462.380	-99.505	884.087	-162.339	-286.031	925.066	-219.040	-99.321	884.677	-405.781	-289.528	935.762	-334.705	-248.477	1383.808	-275.744	-213.824	1345.419	-120.575	-169.035	1363.509	-424.145	-125.220	1330.127	-243.849	-119.712	1329.156	-287.286	-227.439	1217.566	-55.170	-319.708	1037.286	-131.106	-320.629	1045.448	-55.182	-317.269	922.852	-20.774	-329.689	817.811	-11.761	-365.741	828.726	-7.089	-114.052	1231.423	-494.598	-130.430	1022.962	-475.241	-116.556	1046.578	-542.492	-22.832	1002.764	-557.019	82.253	927.520	-542.115	66.002	905.680	-560.273	-190.118	812.072	-184.538	-190.252	813.051	-373.911	-168.078	804.695	-201.302	-172.914	819.482	-361.219	-171.032	1285.922	-271.237	-187.413	1280.628	-120.978	-262.005	1038.065	-75.804	-330.082	825.761	-26.701	-143.312	1291.439	-420.629	-93.713	1058.686	-500.745	69.886	897.782	-525.260	-169.969	861.179	-279.701	-169.655	857.862	-178.044	-31.175	466.720	-199.087	112.897	78.933	-234.800	-164.829	864.616	-381.492	-316.587	425.367	-366.062	-452.747	81.850	-331.994	-313.724	15.565	-332.621	-323.435	19.931	-333.208	-485.798	54.720	-326.083	294.056	95.062	-200.813	284.145	92.749	-201.819	99.120	36.420	-246.412	-238.385	1349.490	-281.991	-175.841	1334.463	-141.917	-143.581	1326.669	-406.121	-113.766	919.650	-125.558	-120.054	930.774	-425.755	-269.608	956.975	-216.943	-272.257	957.732	-333.587	-11.541	483.199	-153.367	-295.634	460.150	-408.799	-5.931	494.475	-261.236	-282.651	467.032	-303.714	119.273	91.879	-170.243	-460.129	89.269	-376.273	136.840	103.995	-251.267	-433.444	95.162	-296.481	79.521	39.852	-223.879	-525.921	70.030	-323.395	247.871	107.434	-201.868	-340.800	28.107	-338.103	210.790	85.858	-157.584	-383.774	27.549	-383.801	-55.224	755.810	-123.704	-38.131	648.288	-117.199	-157.663	716.966	-98.183	-155.894	693.358	-441.106	-214.578	597.876	-449.122	-261.674	727.274	-460.187	28.555	365.139	-151.284	95.872	261.430	-144.719	28.764	243.079	-144.340	-343.506	344.666	-406.333	-367.774	225.770	-408.330	-425.655	258.008	-405.164	-200.897	860.624	-187.887	-202.222	867.762	-369.409	-271.392	1064.475	-54.511	-86.797	1071.657	-541.578	-269.427	1050.767	-122.816	-104.106	1046.023	-468.240	-295.781	821.254	-45.282	90.568	928.326	-513.301	-355.977	835.470	-38.273	44.664	888.294	-545.996	-167.150	1299.003	-274.828	-183.531	1293.709	-124.569	-258.122	1051.146	-79.395	-326.200	838.842	-30.292	-139.429	1304.520	-424.220	-89.831	1071.767	-504.336	73.768	910.862	-528.851	-166.087	874.259	-283.292	-165.773	870.942	-181.635	-27.293	479.801	-202.678	116.779	92.014	-238.391	-160.946	877.697	-385.083	-312.705	438.448	-369.653	-448.864	94.931	-335.585	-309.841	28.646	-336.212	-319.553	33.012	-336.799	-481.916	67.801	-329.674	297.938	108.143	-204.404	288.027	105.830	-205.410	103.002	49.501	-250.003	-234.503	1362.571	-285.582	-171.959	1347.544	-145.508	-139.699	1339.750	-409.712	-109.884	932.731	-129.149	-116.172	943.855	-429.346	-265.726	970.056	-220.534	-268.375	970.813	-337.178	-7.659	496.280	-156.959	-291.752	473.231	-412.390	-2.049	507.556	-264.827	-278.769	480.112	-307.305	123.156	104.960	-173.834	-456.247	102.350	-379.864	140.722	117.076	-254.858	-429.562	108.243	-300.072	83.403	52.933	-227.470	-522.039	83.110	-326.986	251.753	120.515	-205.459	-336.918	41.187	-341.694	214.672	98.939	-161.175	-379.892	40.630	-387.392	-51.342	768.891	-127.295	-34.249	661.369	-120.790	-153.781	730.047	-101.774	-152.012	706.439	-444.697	-210.696	610.957	-452.713	-257.791	740.355	-463.778	32.437	378.219	-154.875	99.754	274.511	-148.310	32.646	256.160	-147.931	-339.624	357.746	-409.924	-363.892	238.851	-411.921	-421.773	271.089	-408.755	-197.015	873.705	-191.478	-198.340	880.842	-373.000	-267.510	1077.556	-58.102	-82.915	1084.737	-545.169	-265.545	1063.848	-126.407	-100.224	1059.104	-471.831	-291.899	834.335	-48.873	94.450	941.406	-516.892	-352.095	848.551	-41.864	48.546	901.374	-549.587
2	0.01000	-17.910	439.145	-134.884	61.517	355.257	-154.731	109.238	78.772	-195.834	87.081	29.751	-253.292	234.615	78.505	-163.150	258.575	119.987	-198.129	-305.050	443.158	-423.063	-299.681	333.107	-374.388	-476.767	84.206	-364.500	-531.096	57.861	-314.649	-369.670	19.094	-371.509	-327.952	33.395	-319.293	95.817	249.971	-176.158	4.981	326.316	-112.333	23.803	219.429	-144.687	-345.047	364.218	-442.207	-396.780	254.799	-443.114	-61.299	745.949	-125.398	-13.268	647.092	-127.236	-46.820	602.963	-85.111	-159.051	698.481	-82.612	-103.313	594.335	-85.721	-148.171	708.187	-448.841	-176.281	574.286	-435.762	-253.456	730.590	-480.320	-283.719	595.386	-460.681	-84.109	884.389	-161.487	-271.315	924.949	-218.665	-85.022	883.447	-405.491	-274.711	934.608	-333.919	-235.457	1382.877	-274.530	-200.366	1344.462	-119.443	-156.225	1362.897	-423.166	-111.749	1329.521	-242.871	-106.277	1328.545	-286.325	-213.719	1216.458	-54.118	-305.611	1036.061	-130.076	-306.770	1044.380	-54.187	-303.880	921.924	-19.667	-316.690	816.880	-10.666	-352.633	827.923	-6.034	-101.737	1230.804	-493.965	-118.217	1022.258	-474.936	-104.236	1046.012	-542.116	-10.007	1002.947	-556.174	95.630	928.734	-540.719	79.592	906.747	-558.980	-174.935	812.201	-183.312	-175.571	811.856	-372.682	-153.309	804.757	-199.924	-158.033	818.179	-360.336	-157.979	1285.446	-270.134	-173.882	1280.098	-119.849	-247.633	1038.076	-74.639	-317.703	824.805	-25.266	-130.742	1291.009	-419.577	-81.545	1058.164	-500.343	83.584	898.616	-523.466	-155.002	858.871	-278.674	-154.369	855.760	-176.778	-16.850	466.467	-198.960	121.173	77.168	-236.880	-150.098	862.016	-380.707	-307.688	424.916	-364.192	-451.306	86.113	-332.123	-312.643	17.447	-333.217	-322.080	21.962	-333.743	-485.082	59.564	-326.016	297.508	88.110	-202.605	287.884	86.242	-203.732	107.381	35.771	-248.675	-225.284	1346.705	-281.133	-162.897	1331.874	-140.698	-130.477	1324.904	-405.424	-98.926	918.018	-124.802	-105.629	927.826	-425.091	-254.774	954.145	-216.261	-257.274	954.444	-333.008	3.696	481.627	-153.807	-284.104	458.663	-408.143	9.013	492.996	-261.346	-271.090	465.013	-303.435	128.223	89.323	-172.704	-457.476	91.677	-376.685	145.571	101.312	-253.860	-430.948	96.544	-296.521	86.937	39.167	-226.113	-524.196	73.823	-323.876	256.758	100.896	-204.998	-339.289	27.719	-338.058	219.532	79.940	-160.350	-382.110	27.970	-383.959	-40.078	753.678	-123.890	-22.935	646.402	-117.398	-142.177	715.060	-97.677	-142.801	690.161	-440.065	-202.249	595.612	-448.243	-247.778	725.311	-459.169	42.143	362.724	-152.194	107.617	258.418	-146.503	40.252	241.322	-145.743	-334.712	343.964	-406.356	-362.025	225.677	-408.330	-419.042	259.481	-405.242	-185.809	858.846	-186.944	-187.339	864.882	-368.387	-257.311	1061.973	-53.369	-73.869	1069.621	-540.246	-255.553	1048.423	-121.044	-90.619	1044.241	-466.884	-284.115	818.509	-43.646	104.875	926.989	-511.892	-343.837	833.302	-37.059	58.947	886.324	-543.935	-154.097	1298.527	-273.725	-170.000	1293.179	-123.440	-243.751	1051.157	-78.230	-313.821	837.886	-28.858	-126.860	1304.090	-423.168	-77.663	1071.245	-503.934	87.466	911.697	-527.057	-151.120	871.952	-282.265	-150.487	868.841	-180.369	-12.968	479.548	-202.551	125.055	90.248	-240.471	-146.216	875.097	-384.298	-303.806	437.997	-367.783	-447.424	99.194	-335.714	-308.761	30.528	-336.809	-318.197	35.043	-337.335	-481.200	72.645	-329.607	301.390	101.190	-206.196	291.766	99.322	-207.323	111.263	48.851	-252.266	-221.402	1359.786	-284.724	-159.015	1344.954	-144.289	-126.595	1337.984	-409.015	-95.044	931.099	-128.393	-101.747	940.907	-428.682	-250.892	967.226	-219.852	-253.392	967.524	-336.599	7.578	494.708	-157.398	-280.222	471.744	-411.734	12.895	506.077	-264.937	-267.208	478.094	-307.026	132.106	102.404	-176.295	-453.594	104.758	-380.276	149.454	114.393	-257.451	-427.066	109.624	-300.112	90.820	52.248	-229.704	-520.314	86.904	-327.467	260.640	113.977	-208.589	-335.407	40.799	-341.649	223.414	93.021	-163.941	-378.228	41.050	-387.550	-36.196	766.759	-127.481	-19.053	659.483	-120.989	-138.295	728.141	-101.268	-138.919	703.242	-443.656	-198.366	608.693	-451.834	-243.896	738.392	-462.760	46.025	375.805	-155.785	111.499	271.498	-150.094	44.134	254.403	-149.334	-330.830	357.045	-409.948	-358.143	238.758	-411.921	-415.160	272.562	-408.833	-181.927	871.926	-190.535	-183.457	877.962	-371.978	-253.429	1075.053	-56.960	-69.987	1082.702	-543.837	-251.671	1061.504	-124.635	-86.737	1057.322	-470.475	-280.233	831.590	-47.237	108.757	940.069	-515.483	-339.955	846.383	-40.650	62.829	899.405	-547.526
3	0.02000	-3.102	439.148	-136.159	74.342	353.101	-156.710	115.727	76.495	-197.762	91.409	30.178	-255.523	240.307	72.250	-164.776	266.636	112.242	-199.790	-294.131	443.280	-421.900	-291.198	332.604	-373.835	-474.642	88.155	-364.994	-529.613	63.072	-315.354	-369.325	20.130	-371.430	-326.992	33.685	-319.417	106.550	247.300	-178.473	18.012	325.227	-113.531	34.235	218.028	-146.005	-335.801	365.411	-441.267	-390.594	257.480	-442.705	-45.930	746.212	-123.025	1.977	647.163	-125.726	-31.887	602.579	-84.648	-144.253	698.603	-82.188	-88.506	594.095	-85.818	-135.179	707.262	-448.038	-164.211	573.253	-434.911	-240.516	730.198	-478.940	-271.706	595.222	-458.925	-68.669	884.628	-160.615	-256.463	924.769	-218.213	-70.602	882.153	-405.162	-259.798	933.446	-333.144	-222.418	1381.891	-273.283	-186.885	1343.473	-118.271	-143.403	1362.229	-422.176	-98.262	1328.911	-241.866	-92.859	1327.944	-285.353	-199.933	1215.303	-53.041	-291.387	1034.751	-129.032	-292.780	1043.212	-53.177	-290.281	920.896	-18.555	-303.400	815.849	-9.551	-339.263	826.986	-4.978	-89.428	1230.090	-493.304	-106.116	1021.469	-474.591	-92.041	1045.345	-541.697	2.642	1002.965	-555.314	108.787	929.681	-539.324	92.951	907.553	-557.688	-159.681	812.269	-182.066	-160.798	810.623	-371.430	-138.420	804.722	-198.533	-143.085	816.846	-359.421	-144.884	1285.130	-268.975	-160.400	1279.678	-118.656	-233.255	1037.976	-73.463	-304.491	823.574	-23.894	-118.033	1290.786	-418.472	-69.565	1057.801	-499.758	96.608	898.997	-521.713	-139.455	856.258	-277.520	-138.517	853.467	-175.430	-2.462	466.375	-198.834	128.309	75.383	-238.594	-134.790	859.017	-379.744	-297.363	424.341	-362.587	-449.406	90.205	-332.413	-311.893	19.335	-333.608	-321.034	24.010	-334.098	-484.182	64.421	-326.040	299.021	79.680	-204.162	289.724	78.361	-205.391	114.018	35.020	-250.593	-211.881	1343.672	-280.162	-149.704	1328.983	-139.349	-117.045	1323.040	-404.601	-83.626	916.403	-124.060	-90.688	924.524	-424.430	-239.510	951.014	-215.634	-241.910	950.728	-332.416	19.451	479.870	-154.157	-271.416	456.743	-407.628	24.316	491.295	-261.444	-258.434	462.447	-303.229	135.208	86.066	-175.180	-454.165	94.258	-377.071	152.339	97.824	-256.473	-427.816	98.018	-296.657	92.095	38.317	-228.276	-521.679	78.083	-324.480	263.537	92.667	-208.175	-337.533	27.013	-338.083	226.113	72.756	-163.156	-380.089	28.297	-384.163	-24.260	751.323	-123.959	-7.128	644.352	-117.484	-125.995	712.916	-96.990	-128.824	686.661	-438.989	-188.953	593.020	-447.412	-233.115	722.933	-458.160	55.563	359.998	-153.132	118.554	254.703	-148.332	50.912	239.346	-147.069	-324.951	343.012	-406.402	-355.381	225.506	-408.364	-411.473	260.896	-405.407	-170.135	856.820	-185.906	-171.868	861.550	-367.232	-242.616	1059.277	-52.153	-60.959	1067.407	-538.812	-241.146	1045.856	-119.247	-77.179	1042.260	-465.433	-271.489	815.574	-41.951	118.890	925.139	-510.410	-330.814	830.829	-35.746	72.866	883.884	-541.829	-141.002	1298.211	-272.566	-156.518	1292.758	-122.247	-229.373	1051.056	-77.054	-300.609	836.654	-27.485	-114.151	1303.866	-422.063	-65.682	1070.882	-503.349	100.490	912.078	-525.304	-135.573	869.339	-281.111	-134.634	866.548	-179.021	1.420	479.456	-202.425	132.191	88.464	-242.185	-130.908	872.098	-383.335	-293.481	437.422	-366.178	-445.524	103.286	-336.004	-308.010	32.415	-337.199	-317.151	37.091	-337.689	-480.300	77.501	-329.631	302.903	92.761	-207.753	293.606	91.442	-208.982	117.900	48.100	-254.185	-207.999	1356.753	-283.753	-145.822	1342.064	-142.940	-113.163	1336.120	-408.192	-79.744	929.484	-127.651	-86.805	937.605	-428.021	-235.628	964.095	-219.225	-238.028	963.809	-336.007	23.333	492.950	-157.748	-267.534	469.824	-411.219	28.198	504.376	-265.035	-254.552	475.528	-306.820	139.090	99.147	-178.771	-450.283	107.339	-380.662	156.221	110.904	-260.064	-423.934	111.099	-300.248	95.977	51.397	-231.867	-517.797	91.164	-328.071	267.419	105.748	-211.766	-333.651	40.094	-341.674	229.995	85.836	-166.747	-376.207	41.378	-387.754	-20.378	764.404	-127.550	-3.246	657.433	-121.075	-122.113	725.997	-100.581	-124.942	699.741	-442.580	-185.071	606.101	-451.003	-229.233	736.014	-461.751	59.445	373.079	-156.723	122.436	267.784	-151.923	54.794	252.427	-150.660	-321.069	356.092	-409.994	-351.499	238.587	-411.955	-407.591	273.977	-408.998	-166.253	869.901	-189.497	-167.985	874.631	-370.823	-238.734	1072.358	-55.744	-57.077	1080.488	-542.403	-237.264	1058.937	-122.838	-73.297	1055.341	-469.024	-267.606	828.655	-45.542	122.772	938.220	-514.001	-326.932	843.910	-39.337	76.748	896.965	-545.420
4	0.03000	11.272	438.966	-136.962	87.104	351.256	-158.545	122.253	74.484	-199.323	95.573	31.128	-257.413	246.003	65.671	-166.641	274.749	103.863	-201.879	-282.553	443.060	-420.740	-282.088	331.758	-373.478	-472.195	92.217	-365.598	-527.721	68.543	-316.171	-368.850	20.839	-371.384	-325.918	33.680	-319.555	117.358	244.930	-180.552	31.110	324.354	-114.448	44.897	216.880	-146.967	-325.984	366.431	-440.358	-383.975	260.129	-442.344	-30.283	746.298	-121.021	17.204	646.924	-124.422	-17.016	602.123	-84.128	-129.011	698.844	-81.759	-73.734	593.985	-85.614	-122.027	706.174	-447.169	-151.630	572.053	-434.090	-227.354	729.508	-477.435	-259.270	594.727	-457.072	-53.167	884.773	-159.715	-241.390	924.477	-217.626	-55.964	880.736	-404.758	-244.721	932.258	-332.389	-209.340	1380.812	-271.978	-173.362	1342.422	-117.026	-130.557	1361.456	-421.170	-84.745	1328.289	-240.808	-79.463	1327.355	-284.353	-186.020	1214.060	-51.919	-276.924	1033.281	-127.962	-278.545	1041.858	-52.139	-276.295	919.677	-17.437	-289.552	814.638	-8.393	-325.407	825.797	-3.918	-77.131	1229.196	-492.593	-94.217	1020.523	-474.165	-80.072	1044.487	-541.195	14.968	1002.662	-554.429	121.538	930.127	-537.934	105.881	907.870	-556.400	-144.306	812.241	-180.778	-145.862	809.314	-370.130	-123.334	804.535	-197.122	-128.013	815.455	-358.445	-131.707	1284.869	-267.755	-146.877	1279.267	-117.387	-219.052	1037.612	-72.308	-290.495	822.106	-22.592	-105.198	1290.660	-417.319	-57.749	1057.482	-498.954	108.948	898.788	-520.044	-123.347	853.629	-276.280	-122.098	851.220	-174.100	11.672	466.359	-198.710	134.912	73.655	-239.924	-118.962	855.977	-378.594	-285.238	423.528	-361.467	-447.005	93.914	-332.910	-311.576	20.921	-333.735	-320.391	25.775	-334.230	-482.941	69.110	-326.239	299.729	70.332	-205.479	290.795	69.618	-206.771	119.648	34.202	-252.207	-198.198	1340.691	-279.136	-136.269	1326.067	-137.938	-103.318	1321.356	-403.701	-67.854	915.063	-123.374	-75.243	921.149	-423.820	-223.813	947.907	-215.081	-226.189	946.919	-331.828	35.645	478.193	-154.403	-257.570	454.651	-407.316	39.897	489.609	-261.542	-244.701	459.641	-303.145	140.854	82.561	-177.564	-450.125	97.296	-377.458	157.749	93.996	-259.010	-424.003	99.912	-296.918	95.708	37.588	-230.262	-518.270	83.148	-325.243	268.830	83.542	-211.286	-335.578	26.305	-338.165	231.190	65.019	-165.899	-377.724	28.840	-384.403	-7.788	749.032	-123.928	9.248	642.422	-117.475	-109.151	710.839	-96.147	-113.951	683.164	-437.904	-174.656	590.400	-446.670	-217.682	720.419	-457.205	68.940	357.294	-154.048	129.011	250.732	-150.143	61.079	237.460	-148.236	-314.193	342.099	-406.519	-347.798	225.538	-408.466	-402.893	262.525	-405.729	-153.893	854.819	-184.808	-155.834	858.068	-365.986	-227.368	1056.667	-50.886	-48.111	1065.289	-537.311	-226.263	1043.349	-117.479	-63.839	1040.358	-463.922	-257.923	812.727	-40.247	132.544	923.021	-508.907	-316.942	828.323	-34.365	86.351	881.224	-539.735	-127.825	1297.950	-271.346	-142.995	1292.348	-120.978	-215.170	1050.693	-75.899	-286.613	835.187	-26.183	-101.316	1303.740	-420.910	-53.867	1070.563	-502.545	112.830	911.869	-523.635	-119.465	866.710	-279.872	-118.216	864.301	-177.691	15.554	479.440	-202.301	138.795	86.735	-243.515	-115.079	869.058	-382.185	-281.356	436.609	-365.058	-443.123	106.995	-336.502	-307.694	34.001	-337.326	-316.508	38.856	-337.821	-479.058	82.191	-329.830	303.611	83.412	-209.070	294.678	82.699	-210.362	123.531	47.283	-255.798	-194.316	1353.772	-282.727	-132.387	1339.148	-141.529	-99.436	1334.437	-407.292	-63.972	928.144	-126.965	-71.361	934.230	-427.411	-219.931	960.988	-218.672	-222.307	960.000	-335.419	39.527	491.273	-157.994	-253.688	467.732	-410.907	43.779	502.689	-265.133	-240.819	472.722	-306.736	144.736	95.641	-181.155	-446.243	110.377	-381.049	161.631	107.076	-262.601	-420.121	112.992	-300.510	99.590	50.668	-233.853	-514.388	96.229	-328.834	272.712	96.622	-214.877	-331.696	39.386	-341.756	235.072	78.100	-169.490	-373.842	41.921	-387.994	-3.905	762.113	-127.519	13.130	655.502	-121.066	-105.269	723.920	-99.738	-110.069	696.244	-441.495	-170.774	603.480	-450.261	-213.800	733.500	-460.796	72.822	370.375	-157.639	132.893	263.813	-153.734	64.961	250.540	-151.827	-310.311	355.180	-410.110	-343.916	238.619	-412.057	-399.011	275.606	-409.320	-150.011	867.900	-188.399	-151.952	871.148	-369.577	-223.486	1069.748	-54.477	-44.229	1078.370	-540.902	-222.381	1056.430	-121.070	-59.957	1053.438	-467.513	-254.041	825.808	-43.838	136.426	936.101	-512.498	-313.060	841.404	-37.956	90.233	894.305	-543.326
